<mxfile host="app.diagrams.net" agent="Mozilla/5.0 (Windows NT 10.0; Win64; x64) AppleWebKit/537.36 (KHTML, like Gecko) Chrome/128.0.0.0 Safari/537.36" version="24.7.12">
  <diagram id="Ht1M8jgEwFfnCIfOTk4-" name="Page-1">
    <mxGraphModel grid="1" page="1" gridSize="10" guides="1" tooltips="1" connect="1" arrows="1" fold="1" pageScale="1" pageWidth="1169" pageHeight="827" math="0" shadow="0">
      <root>
        <mxCell id="0" />
        <mxCell id="1" parent="0" />
        <mxCell id="GIFevL8kdk-Ho0zxx0ZK-4" value="Amazon Lambda" style="sketch=0;points=[[0,0,0],[0.25,0,0],[0.5,0,0],[0.75,0,0],[1,0,0],[0,1,0],[0.25,1,0],[0.5,1,0],[0.75,1,0],[1,1,0],[0,0.25,0],[0,0.5,0],[0,0.75,0],[1,0.25,0],[1,0.5,0],[1,0.75,0]];outlineConnect=0;fontColor=#232F3E;fillColor=#ED7100;strokeColor=#ffffff;dashed=0;verticalLabelPosition=bottom;verticalAlign=top;align=center;html=1;fontSize=12;fontStyle=0;shape=mxgraph.aws4.resourceIcon;resIcon=mxgraph.aws4.lambda;aspect=fixed;" vertex="1" parent="1">
          <mxGeometry x="508" y="270" width="80" height="80" as="geometry" />
        </mxCell>
        <mxCell id="GIFevL8kdk-Ho0zxx0ZK-12" style="edgeStyle=orthogonalEdgeStyle;rounded=0;orthogonalLoop=1;jettySize=auto;html=1;entryX=0;entryY=0.5;entryDx=0;entryDy=0;" edge="1" parent="1" source="GIFevL8kdk-Ho0zxx0ZK-5" target="GIFevL8kdk-Ho0zxx0ZK-11">
          <mxGeometry relative="1" as="geometry" />
        </mxCell>
        <mxCell id="GIFevL8kdk-Ho0zxx0ZK-5" value="Amazon Lambda" style="sketch=0;points=[[0,0,0],[0.25,0,0],[0.5,0,0],[0.75,0,0],[1,0,0],[0,1,0],[0.25,1,0],[0.5,1,0],[0.75,1,0],[1,1,0],[0,0.25,0],[0,0.5,0],[0,0.75,0],[1,0.25,0],[1,0.5,0],[1,0.75,0]];outlineConnect=0;fontColor=#232F3E;fillColor=#ED7100;strokeColor=#ffffff;dashed=0;verticalLabelPosition=bottom;verticalAlign=top;align=center;html=1;fontSize=12;fontStyle=0;shape=mxgraph.aws4.resourceIcon;resIcon=mxgraph.aws4.lambda;aspect=fixed;" vertex="1" parent="1">
          <mxGeometry x="508" y="373.34000000000003" width="80" height="80" as="geometry" />
        </mxCell>
        <mxCell id="GIFevL8kdk-Ho0zxx0ZK-13" style="edgeStyle=orthogonalEdgeStyle;rounded=0;orthogonalLoop=1;jettySize=auto;html=1;entryX=0;entryY=0.5;entryDx=0;entryDy=0;" edge="1" parent="1" source="GIFevL8kdk-Ho0zxx0ZK-6" target="GIFevL8kdk-Ho0zxx0ZK-11">
          <mxGeometry relative="1" as="geometry" />
        </mxCell>
        <mxCell id="GIFevL8kdk-Ho0zxx0ZK-6" value="Amazon Lambda" style="sketch=0;points=[[0,0,0],[0.25,0,0],[0.5,0,0],[0.75,0,0],[1,0,0],[0,1,0],[0.25,1,0],[0.5,1,0],[0.75,1,0],[1,1,0],[0,0.25,0],[0,0.5,0],[0,0.75,0],[1,0.25,0],[1,0.5,0],[1,0.75,0]];outlineConnect=0;fontColor=#232F3E;fillColor=#ED7100;strokeColor=#ffffff;dashed=0;verticalLabelPosition=bottom;verticalAlign=top;align=center;html=1;fontSize=12;fontStyle=0;shape=mxgraph.aws4.resourceIcon;resIcon=mxgraph.aws4.lambda;aspect=fixed;" vertex="1" parent="1">
          <mxGeometry x="508" y="478" width="80" height="80" as="geometry" />
        </mxCell>
        <mxCell id="GIFevL8kdk-Ho0zxx0ZK-7" value="Amazon API Gateway" style="sketch=0;points=[[0,0,0],[0.25,0,0],[0.5,0,0],[0.75,0,0],[1,0,0],[0,1,0],[0.25,1,0],[0.5,1,0],[0.75,1,0],[1,1,0],[0,0.25,0],[0,0.5,0],[0,0.75,0],[1,0.25,0],[1,0.5,0],[1,0.75,0]];outlineConnect=0;fontColor=#232F3E;fillColor=#E7157B;strokeColor=#ffffff;dashed=0;verticalLabelPosition=bottom;verticalAlign=top;align=center;html=1;fontSize=12;fontStyle=0;aspect=fixed;shape=mxgraph.aws4.resourceIcon;resIcon=mxgraph.aws4.api_gateway;" vertex="1" parent="1">
          <mxGeometry x="313" y="373.34000000000003" width="80" height="80" as="geometry" />
        </mxCell>
        <mxCell id="GIFevL8kdk-Ho0zxx0ZK-8" style="edgeStyle=orthogonalEdgeStyle;rounded=0;orthogonalLoop=1;jettySize=auto;html=1;entryX=0;entryY=0.5;entryDx=0;entryDy=0;entryPerimeter=0;" edge="1" parent="1" source="GIFevL8kdk-Ho0zxx0ZK-7" target="GIFevL8kdk-Ho0zxx0ZK-5">
          <mxGeometry relative="1" as="geometry" />
        </mxCell>
        <mxCell id="GIFevL8kdk-Ho0zxx0ZK-29" value="Model Training" style="edgeLabel;html=1;align=center;verticalAlign=middle;resizable=0;points=[];" connectable="0" vertex="1" parent="GIFevL8kdk-Ho0zxx0ZK-8">
          <mxGeometry x="-0.1478" y="-2" relative="1" as="geometry">
            <mxPoint y="13" as="offset" />
          </mxGeometry>
        </mxCell>
        <mxCell id="GIFevL8kdk-Ho0zxx0ZK-9" style="edgeStyle=orthogonalEdgeStyle;rounded=0;orthogonalLoop=1;jettySize=auto;html=1;entryX=0;entryY=0.5;entryDx=0;entryDy=0;entryPerimeter=0;" edge="1" parent="1" source="GIFevL8kdk-Ho0zxx0ZK-7" target="GIFevL8kdk-Ho0zxx0ZK-4">
          <mxGeometry relative="1" as="geometry">
            <Array as="points">
              <mxPoint x="353" y="310" />
            </Array>
          </mxGeometry>
        </mxCell>
        <mxCell id="GIFevL8kdk-Ho0zxx0ZK-28" value="Utils" style="edgeLabel;html=1;align=center;verticalAlign=middle;resizable=0;points=[];" connectable="0" vertex="1" parent="GIFevL8kdk-Ho0zxx0ZK-9">
          <mxGeometry x="0.3405" y="1" relative="1" as="geometry">
            <mxPoint x="-7" y="14" as="offset" />
          </mxGeometry>
        </mxCell>
        <mxCell id="GIFevL8kdk-Ho0zxx0ZK-10" style="edgeStyle=orthogonalEdgeStyle;rounded=0;orthogonalLoop=1;jettySize=auto;html=1;entryX=0;entryY=0.5;entryDx=0;entryDy=0;entryPerimeter=0;" edge="1" parent="1" target="GIFevL8kdk-Ho0zxx0ZK-6">
          <mxGeometry relative="1" as="geometry">
            <mxPoint x="353" y="480" as="sourcePoint" />
            <Array as="points">
              <mxPoint x="353" y="518" />
            </Array>
          </mxGeometry>
        </mxCell>
        <mxCell id="GIFevL8kdk-Ho0zxx0ZK-30" value="Inference" style="edgeLabel;html=1;align=center;verticalAlign=middle;resizable=0;points=[];" connectable="0" vertex="1" parent="GIFevL8kdk-Ho0zxx0ZK-10">
          <mxGeometry x="0.3353" y="-2" relative="1" as="geometry">
            <mxPoint y="12" as="offset" />
          </mxGeometry>
        </mxCell>
        <mxCell id="GIFevL8kdk-Ho0zxx0ZK-11" value="AWS Step Functions workflow" style="points=[[0,0],[0.25,0],[0.5,0],[0.75,0],[1,0],[1,0.25],[1,0.5],[1,0.75],[1,1],[0.75,1],[0.5,1],[0.25,1],[0,1],[0,0.75],[0,0.5],[0,0.25]];outlineConnect=0;gradientColor=none;html=1;whiteSpace=wrap;fontSize=12;fontStyle=0;container=1;pointerEvents=0;collapsible=0;recursiveResize=0;shape=mxgraph.aws4.group;grIcon=mxgraph.aws4.group_aws_step_functions_workflow;strokeColor=#CD2264;fillColor=none;verticalAlign=top;align=left;spacingLeft=30;fontColor=#CD2264;dashed=0;" vertex="1" parent="1">
          <mxGeometry x="663" y="278" width="410" height="270" as="geometry" />
        </mxCell>
        <mxCell id="GIFevL8kdk-Ho0zxx0ZK-14" value="Amazon Sagemaker" style="sketch=0;points=[[0,0,0],[0.25,0,0],[0.5,0,0],[0.75,0,0],[1,0,0],[0,1,0],[0.25,1,0],[0.5,1,0],[0.75,1,0],[1,1,0],[0,0.25,0],[0,0.5,0],[0,0.75,0],[1,0.25,0],[1,0.5,0],[1,0.75,0]];outlineConnect=0;fontColor=#232F3E;fillColor=#01A88D;strokeColor=#ffffff;dashed=0;verticalLabelPosition=bottom;verticalAlign=top;align=center;html=1;fontSize=12;fontStyle=0;aspect=fixed;shape=mxgraph.aws4.resourceIcon;resIcon=mxgraph.aws4.sagemaker;" vertex="1" parent="GIFevL8kdk-Ho0zxx0ZK-11">
          <mxGeometry x="30" y="40" width="80" height="80" as="geometry" />
        </mxCell>
        <mxCell id="GIFevL8kdk-Ho0zxx0ZK-15" value="Amazon S3" style="sketch=0;points=[[0,0,0],[0.25,0,0],[0.5,0,0],[0.75,0,0],[1,0,0],[0,1,0],[0.25,1,0],[0.5,1,0],[0.75,1,0],[1,1,0],[0,0.25,0],[0,0.5,0],[0,0.75,0],[1,0.25,0],[1,0.5,0],[1,0.75,0]];outlineConnect=0;fontColor=#232F3E;fillColor=#7AA116;strokeColor=#ffffff;dashed=0;verticalLabelPosition=bottom;verticalAlign=top;align=center;html=1;fontSize=12;fontStyle=0;aspect=fixed;shape=mxgraph.aws4.resourceIcon;resIcon=mxgraph.aws4.s3;" vertex="1" parent="GIFevL8kdk-Ho0zxx0ZK-11">
          <mxGeometry x="165" y="40" width="80" height="80" as="geometry" />
        </mxCell>
        <mxCell id="GIFevL8kdk-Ho0zxx0ZK-26" style="edgeStyle=orthogonalEdgeStyle;rounded=0;orthogonalLoop=1;jettySize=auto;html=1;startArrow=classic;startFill=1;endArrow=none;endFill=0;" edge="1" parent="GIFevL8kdk-Ho0zxx0ZK-11" source="GIFevL8kdk-Ho0zxx0ZK-17">
          <mxGeometry relative="1" as="geometry">
            <mxPoint x="70" y="142" as="targetPoint" />
          </mxGeometry>
        </mxCell>
        <mxCell id="GIFevL8kdk-Ho0zxx0ZK-17" value="Model" style="sketch=0;outlineConnect=0;fontColor=#232F3E;gradientColor=none;fillColor=#01A88D;strokeColor=none;dashed=0;verticalLabelPosition=bottom;verticalAlign=top;align=center;html=1;fontSize=12;fontStyle=0;aspect=fixed;pointerEvents=1;shape=mxgraph.aws4.sagemaker_model;" vertex="1" parent="GIFevL8kdk-Ho0zxx0ZK-11">
          <mxGeometry x="31" y="167" width="78" height="78" as="geometry" />
        </mxCell>
        <mxCell id="GIFevL8kdk-Ho0zxx0ZK-19" style="edgeStyle=orthogonalEdgeStyle;rounded=0;orthogonalLoop=1;jettySize=auto;html=1;entryX=0;entryY=0.5;entryDx=0;entryDy=0;entryPerimeter=0;startArrow=classic;startFill=1;" edge="1" parent="GIFevL8kdk-Ho0zxx0ZK-11" source="GIFevL8kdk-Ho0zxx0ZK-14" target="GIFevL8kdk-Ho0zxx0ZK-15">
          <mxGeometry relative="1" as="geometry" />
        </mxCell>
        <mxCell id="GIFevL8kdk-Ho0zxx0ZK-33" value="Data" style="edgeLabel;html=1;align=center;verticalAlign=middle;resizable=0;points=[];" connectable="0" vertex="1" parent="GIFevL8kdk-Ho0zxx0ZK-19">
          <mxGeometry x="0.0165" y="1" relative="1" as="geometry">
            <mxPoint y="16" as="offset" />
          </mxGeometry>
        </mxCell>
        <mxCell id="GIFevL8kdk-Ho0zxx0ZK-20" value="Amazon DynamoDB" style="sketch=0;points=[[0,0,0],[0.25,0,0],[0.5,0,0],[0.75,0,0],[1,0,0],[0,1,0],[0.25,1,0],[0.5,1,0],[0.75,1,0],[1,1,0],[0,0.25,0],[0,0.5,0],[0,0.75,0],[1,0.25,0],[1,0.5,0],[1,0.75,0]];outlineConnect=0;fontColor=#232F3E;fillColor=#C925D1;strokeColor=#ffffff;dashed=0;verticalLabelPosition=bottom;verticalAlign=top;align=center;html=1;fontSize=12;fontStyle=0;aspect=fixed;shape=mxgraph.aws4.resourceIcon;resIcon=mxgraph.aws4.dynamodb;" vertex="1" parent="GIFevL8kdk-Ho0zxx0ZK-11">
          <mxGeometry x="300" y="167" width="78" height="78" as="geometry" />
        </mxCell>
        <mxCell id="GIFevL8kdk-Ho0zxx0ZK-21" value="Amazon SNS" style="sketch=0;points=[[0,0,0],[0.25,0,0],[0.5,0,0],[0.75,0,0],[1,0,0],[0,1,0],[0.25,1,0],[0.5,1,0],[0.75,1,0],[1,1,0],[0,0.25,0],[0,0.5,0],[0,0.75,0],[1,0.25,0],[1,0.5,0],[1,0.75,0]];outlineConnect=0;fontColor=#232F3E;fillColor=#E7157B;strokeColor=#ffffff;dashed=0;verticalLabelPosition=bottom;verticalAlign=top;align=center;html=1;fontSize=12;fontStyle=0;aspect=fixed;shape=mxgraph.aws4.resourceIcon;resIcon=mxgraph.aws4.sns;" vertex="1" parent="GIFevL8kdk-Ho0zxx0ZK-11">
          <mxGeometry x="300" y="40" width="78" height="78" as="geometry" />
        </mxCell>
        <mxCell id="GIFevL8kdk-Ho0zxx0ZK-16" value="Amazon S3" style="sketch=0;points=[[0,0,0],[0.25,0,0],[0.5,0,0],[0.75,0,0],[1,0,0],[0,1,0],[0.25,1,0],[0.5,1,0],[0.75,1,0],[1,1,0],[0,0.25,0],[0,0.5,0],[0,0.75,0],[1,0.25,0],[1,0.5,0],[1,0.75,0]];outlineConnect=0;fontColor=#232F3E;fillColor=#7AA116;strokeColor=#ffffff;dashed=0;verticalLabelPosition=bottom;verticalAlign=top;align=center;html=1;fontSize=12;fontStyle=0;aspect=fixed;shape=mxgraph.aws4.resourceIcon;resIcon=mxgraph.aws4.s3;" vertex="1" parent="1">
          <mxGeometry x="828" y="444" width="80" height="80" as="geometry" />
        </mxCell>
        <mxCell id="GIFevL8kdk-Ho0zxx0ZK-18" style="edgeStyle=orthogonalEdgeStyle;rounded=0;orthogonalLoop=1;jettySize=auto;html=1;entryX=0;entryY=0.5;entryDx=0;entryDy=0;entryPerimeter=0;" edge="1" parent="1" source="GIFevL8kdk-Ho0zxx0ZK-17" target="GIFevL8kdk-Ho0zxx0ZK-16">
          <mxGeometry relative="1" as="geometry" />
        </mxCell>
        <mxCell id="GIFevL8kdk-Ho0zxx0ZK-34" value="CKPT" style="edgeLabel;html=1;align=center;verticalAlign=middle;resizable=0;points=[];" connectable="0" vertex="1" parent="GIFevL8kdk-Ho0zxx0ZK-18">
          <mxGeometry x="0.0762" y="-1" relative="1" as="geometry">
            <mxPoint y="13" as="offset" />
          </mxGeometry>
        </mxCell>
        <mxCell id="GIFevL8kdk-Ho0zxx0ZK-22" value="WebUI Amazon Extension" style="sketch=0;outlineConnect=0;fontColor=#232F3E;gradientColor=none;fillColor=#232F3D;strokeColor=none;dashed=0;verticalLabelPosition=bottom;verticalAlign=top;align=center;html=1;fontSize=12;fontStyle=0;aspect=fixed;pointerEvents=1;shape=mxgraph.aws4.client;" vertex="1" parent="1">
          <mxGeometry x="96" y="375" width="78" height="76" as="geometry" />
        </mxCell>
        <mxCell id="GIFevL8kdk-Ho0zxx0ZK-24" style="edgeStyle=orthogonalEdgeStyle;rounded=0;orthogonalLoop=1;jettySize=auto;html=1;entryX=0;entryY=0.5;entryDx=0;entryDy=0;entryPerimeter=0;" edge="1" parent="1" source="GIFevL8kdk-Ho0zxx0ZK-22" target="GIFevL8kdk-Ho0zxx0ZK-7">
          <mxGeometry relative="1" as="geometry" />
        </mxCell>
        <mxCell id="GIFevL8kdk-Ho0zxx0ZK-27" value="API Token" style="edgeLabel;html=1;align=center;verticalAlign=middle;resizable=0;points=[];" connectable="0" vertex="1" parent="GIFevL8kdk-Ho0zxx0ZK-24">
          <mxGeometry x="-0.1501" y="1" relative="1" as="geometry">
            <mxPoint x="7" y="16" as="offset" />
          </mxGeometry>
        </mxCell>
        <mxCell id="ffxIw4Q65_oam3lmYmI6-1" value="" style="rounded=0;whiteSpace=wrap;html=1;fillColor=none;" vertex="1" parent="1">
          <mxGeometry x="280" y="234" width="830" height="360" as="geometry" />
        </mxCell>
      </root>
    </mxGraphModel>
  </diagram>
</mxfile>
